<?xml version="1.0" encoding="UTF-8" standalone="no"?><!DOCTYPE svg PUBLIC "-//W3C//DTD SVG 1.1//EN" "http://www.w3.org/Graphics/SVG/1.1/DTD/svg11.dtd"><svg width="100%" height="100%" viewBox="0 0 5231 1874" version="1.1" xmlns="http://www.w3.org/2000/svg" xmlns:xlink="http://www.w3.org/1999/xlink" xml:space="preserve" xmlns:serif="http://www.serif.com/" style="fill-rule:evenodd;clip-rule:evenodd;stroke-linejoin:round;stroke-miterlimit:2;"><path d="M1645.39,94.099l0,1685.36c0,42.951 -34.871,77.822 -77.823,77.822l-1476.73,0c-42.951,0 -77.822,-34.871 -77.822,-77.822l-0,-1685.36c-0,-42.952 34.871,-77.823 77.822,-77.823l1476.73,0c42.952,0 77.823,34.871 77.823,77.823Z" style="fill:#fff8ea;"/><path d="M1648.27,94.099l7.016,1685.39c0.16,48.192 -38.927,87.925 -87.681,88.09c-717.212,2.436 -1472.82,2.934 -1480.26,2.647c-48.63,-1.871 -87.294,-41.984 -87.273,-90.727c0.225,-532.302 3.606,-1682.39 3.866,-1688.75c1.906,-46.556 40.39,-83.381 86.881,-83.233c553.932,1.772 1476.4,5.322 1479.89,5.468c21.424,0.898 40.763,10.129 54.772,24.586c23.999,24.769 22.755,54.119 22.791,56.534Zm-5.75,-0c0.006,-0.599 1.476,-33.351 -26.774,-57.039c-12.732,-10.677 -29.464,-17.49 -48.184,-17.415c-793.415,3.169 -1477.78,5.389 -1479.39,5.456c-36.616,1.527 -66.111,31.71 -65.991,69.027c4.045,1264.38 3.578,1682.78 3.88,1688.67c1.745,33.99 29.848,61.469 64.825,61.464l1476.65,2.715c37.604,0.123 67.839,-30.302 67.964,-67.556l7.016,-1685.32l0,-0.006Z"/><path d="M5217.11,97.895l-0,1677.76c-0,45.046 -36.572,81.618 -81.619,81.618l-1469.14,0c-45.046,0 -81.618,-36.572 -81.618,-81.618l-0,-1677.76c-0,-45.047 36.572,-81.619 81.618,-81.619l1469.14,0c45.047,0 81.619,36.572 81.619,81.619Z" style="fill:#ffe4aa;"/><path d="M5219.98,97.895l6.996,1677.8c0.166,50.279 -40.61,91.714 -91.457,91.887c-708.454,2.41 -1465.32,2.935 -1472.82,2.646c-50.656,-1.949 -90.944,-43.732 -90.922,-94.523c0.221,-527.366 3.582,-1674.76 3.85,-1681.31c1.99,-48.59 42.152,-87.037 90.693,-86.881c547.124,1.751 1468.83,5.294 1472.44,5.446c22.434,0.94 42.682,10.607 57.349,25.744c25.128,25.934 23.825,56.664 23.863,59.193Zm-5.75,-0c0.006,-0.618 1.556,-35.036 -28.129,-59.928c-13.39,-11.227 -30.973,-18.376 -50.625,-18.298c-781.415,3.124 -1470.27,5.365 -1471.94,5.435c-38.638,1.61 -69.747,33.463 -69.621,72.82c4.004,1251.33 3.563,1675.38 3.866,1681.28c1.845,35.932 31.53,65.057 68.616,65.062c740.653,0.092 1468.33,2.796 1471.86,2.675c38.136,-1.305 68.855,-32.666 68.986,-71.309l6.996,-1677.73l0,-0.006Z"/><path d="M3431.25,97.895l-0,1677.76c-0,45.046 -36.573,81.618 -81.619,81.618l-1469.14,0c-45.047,0 -81.619,-36.572 -81.619,-81.618l0,-1677.76c0,-45.047 36.572,-81.619 81.619,-81.619l1469.14,0c45.046,0 81.619,36.572 81.619,81.619Z" style="fill:#ffeec8;"/><path d="M3447.53,97.895l-6.536,1677.8c-0.187,50.523 -41.367,91.037 -91.33,90.855c-886.717,-3.236 -1469.28,-4.238 -1472.51,-4.367c-46.267,-1.844 -83.09,-40.031 -83.002,-86.504c1.327,-705.811 1.217,-899.055 -1.092,-1613.06c-0.213,-65.908 -0.731,-65.929 0.246,-74.783c4.828,-43.776 41.933,-78.02 87.169,-78.221l1469.2,-8.652c24.424,-0.18 49.077,9.015 67.987,27.252c31.077,29.97 29.796,67.216 29.86,69.687Zm-32.502,-0c-0.028,-0.532 -0.046,-1.096 -0.056,-1.693c-0.548,-35.526 -29.63,-64.339 -65.386,-64.605l-1469.07,-8.653c-41.649,-0.183 -75.35,33.509 -75.537,74.97l-2.222,963.469c-0.022,217.302 0.648,712.448 0.953,718.233c2.135,40.459 35.661,72.768 76.801,72.691c494.709,-0.921 1466.61,-4.138 1471.92,-4.362c38.34,-1.619 69.222,-33.229 69.078,-72.317l-6.536,-1677.73l0.051,-0Z"/><g transform="matrix(3.125,0,0,3.125,105.517,183.591)"><text x="0px" y="35.791px" style="font-family:'Arial-BoldMT', 'Arial', sans-serif;font-weight:700;font-size:50px;">Modul 1:</text><text x="0px" y="152.458px" style="font-family:'ArialMT', 'Arial', sans-serif;font-size:50px;">Frauenbeschwerden</text><text x="0px" y="219.124px" style="font-family:'ArialMT', 'Arial', sans-serif;font-size:50px;">verstehen &amp;</text><g transform="matrix(50,0,0,50,202.954,285.791)"></g><text x="0px" y="285.791px" style="font-family:'ArialMT', 'Arial', sans-serif;font-size:50px;">begleiten</text></g><g transform="matrix(3.125,0,0,3.125,1892.72,183.591)"><text x="0px" y="35.791px" style="font-family:'Arial-BoldMT', 'Arial', sans-serif;font-weight:700;font-size:50px;">Modul 2:</text><text x="0px" y="152.458px" style="font-family:'ArialMT', 'Arial', sans-serif;font-size:50px;">Kinderwunsch,</text><text x="0px" y="219.124px" style="font-family:'ArialMT', 'Arial', sans-serif;font-size:50px;">Schwangerschaft &amp;</text><g transform="matrix(50,0,0,50,265.918,285.791)"></g><text x="0px" y="285.791px" style="font-family:'ArialMT', 'Arial', sans-serif;font-size:50px;">W<tspan x="46.289px 74.097px " y="285.791px 285.791px ">oc</tspan>henbett</text></g><g transform="matrix(3.125,0,0,3.125,3678.57,183.591)"><text x="0px" y="35.791px" style="font-family:'Arial-BoldMT', 'Arial', sans-serif;font-weight:700;font-size:50px;">Modul 3:</text><text x="0px" y="152.458px" style="font-family:'ArialMT', 'Arial', sans-serif;font-size:50px;">Die W<tspan x="135.205px 163.013px " y="152.458px 152.458px ">ec</tspan>hseljahre im</text><g transform="matrix(50,0,0,50,421.582,219.124)"></g><text x="0px" y="219.124px" style="font-family:'ArialMT', 'Arial', sans-serif;font-size:50px;">Licht des <tspan x="211.255px 243.701px 268.701px " y="219.124px 219.124px 219.124px ">Ayu</tspan>rveda</text></g><g transform="matrix(156.25,0,0,156.25,2986.6,1779.48)"></g><text x="2239.46px" y="1779.48px" style="font-family:'Arial-ItalicMT', 'Arial', sans-serif;font-style:italic;font-size:156.25px;">In Planung</text><g transform="matrix(156.25,0,0,156.25,4779.8,1779.48)"></g><text x="4032.65px" y="1779.48px" style="font-family:'Arial-ItalicMT', 'Arial', sans-serif;font-style:italic;font-size:156.25px;">In Planung</text><g transform="matrix(156.25,0,0,156.25,1628,1768.45)"></g><text x="38.42px" y="1768.45px" style="font-family:'Arial-ItalicMT', 'Arial', sans-serif;font-style:italic;font-size:156.25px;">13./14.Dezember 2025</text></svg>