<?xml version="1.0" encoding="UTF-8" standalone="no"?>
<!DOCTYPE svg PUBLIC "-//W3C//DTD SVG 1.1//EN" "http://www.w3.org/Graphics/SVG/1.1/DTD/svg11.dtd">
<svg width="100%" height="100%" viewBox="0 0 1674 600" version="1.1" xmlns="http://www.w3.org/2000/svg" xmlns:xlink="http://www.w3.org/1999/xlink" xml:space="preserve" xmlns:serif="http://www.serif.com/" style="fill-rule:evenodd;clip-rule:evenodd;stroke-linejoin:round;stroke-miterlimit:2;">
    <g transform="matrix(1,0,0,0.415717,-663.774,-166.212)">
        <path d="M1190.3,472.252L1190.3,1769.56C1190.3,1802.62 1179.14,1829.47 1165.4,1829.47L692.844,1829.47C679.099,1829.47 667.94,1802.62 667.94,1769.56L667.94,472.252C667.94,439.19 679.099,412.348 692.844,412.348L1165.4,412.348C1179.14,412.348 1190.3,439.19 1190.3,472.252Z" style="fill:rgb(255,248,234);"/>
        <path d="M1191.22,472.252L1193.46,1769.59C1193.52,1806.68 1181.01,1837.27 1165.41,1837.39C935.899,1839.27 694.105,1839.65 691.723,1839.43C676.162,1837.99 663.789,1807.11 663.796,1769.59C663.868,1359.85 664.95,474.567 665.033,469.67C665.643,433.833 677.958,405.487 692.835,405.601C870.093,406.965 1165.28,409.698 1166.4,409.81C1173.26,410.501 1179.44,417.607 1183.93,428.736C1191.61,447.801 1191.21,470.393 1191.22,472.252ZM1189.38,472.252C1189.38,471.791 1189.85,446.581 1180.81,428.347C1176.74,420.128 1171.38,414.883 1165.39,414.941C911.5,417.381 692.503,419.09 691.988,419.141C680.271,420.316 670.833,443.55 670.871,472.275C672.166,1445.54 672.016,1767.6 672.113,1772.14C672.671,1798.3 681.664,1819.45 692.857,1819.45L1165.39,1821.54C1177.42,1821.63 1187.1,1798.21 1187.13,1769.54L1189.38,472.257L1189.38,472.252Z"/>
    </g>
    <g transform="matrix(1,0,0,0.415717,479.174,-166.212)">
        <path d="M1190.3,475.174L1190.3,1766.64C1190.3,1801.31 1178.6,1829.47 1164.18,1829.47L694.058,1829.47C679.643,1829.47 667.94,1801.31 667.94,1766.64L667.94,475.174C667.94,440.5 679.643,412.348 694.058,412.348L1164.18,412.348C1178.6,412.348 1190.3,440.5 1190.3,475.174Z" style="fill:rgb(255,228,170);"/>
        <path d="M1191.22,475.174L1193.46,1766.66C1193.51,1805.37 1180.46,1837.26 1164.19,1837.39C937.487,1839.25 695.291,1839.65 692.891,1839.43C676.681,1837.93 663.789,1805.77 663.796,1766.67C663.867,1360.73 664.942,477.519 665.028,472.479C665.665,435.077 678.517,405.482 694.049,405.602C869.129,406.949 1164.07,409.677 1165.23,409.794C1172.41,410.518 1178.89,417.958 1183.58,429.61C1191.62,449.573 1191.21,473.228 1191.22,475.174ZM1189.38,475.174C1189.38,474.698 1189.88,448.206 1180.38,429.045C1176.09,420.403 1170.47,414.899 1164.18,414.96C914.126,417.364 693.692,419.09 693.156,419.144C680.792,420.383 670.837,444.902 670.877,475.197C672.159,1438.41 672.018,1764.83 672.115,1769.37C672.705,1797.02 682.204,1819.44 694.072,1819.45C931.081,1819.52 1163.94,1821.6 1165.07,1821.51C1177.27,1820.5 1187.1,1796.36 1187.14,1766.62L1189.38,475.179L1189.38,475.174Z"/>
    </g>
    <g transform="matrix(1,0,0,0.415717,-92.2997,-166.212)">
        <path d="M1190.3,475.174L1190.3,1766.64C1190.3,1801.31 1178.6,1829.47 1164.18,1829.47L694.058,1829.47C679.643,1829.47 667.94,1801.31 667.94,1766.64L667.94,475.174C667.94,440.5 679.643,412.348 694.058,412.348L1164.18,412.348C1178.6,412.348 1190.3,440.5 1190.3,475.174Z" style="fill:rgb(255,238,200);"/>
        <path d="M1195.51,475.174L1193.42,1766.66C1193.36,1805.55 1180.18,1836.74 1164.19,1836.6C880.442,1834.11 694.02,1833.34 692.989,1833.24C678.183,1831.82 666.4,1802.42 666.428,1766.65C666.853,1223.35 666.818,1074.6 666.079,524.991C666.011,474.258 665.845,474.242 666.157,467.427C667.703,433.73 679.576,407.37 694.052,407.216L1164.2,400.555C1172.01,400.417 1179.9,407.495 1185.95,421.533C1195.9,444.602 1195.49,473.272 1195.51,475.174ZM1185.11,475.174C1185.1,474.765 1185.09,474.331 1185.09,473.871C1184.91,446.525 1175.61,424.346 1164.17,424.141L694.065,417.48C680.737,417.34 669.953,443.274 669.893,475.189L669.182,1216.82C669.175,1384.09 669.389,1765.23 669.487,1769.69C670.17,1800.83 680.899,1825.7 694.063,1825.64C852.371,1824.93 1163.38,1822.45 1165.08,1822.28C1177.35,1821.04 1187.23,1796.7 1187.18,1766.62L1185.09,475.174L1185.11,475.174Z"/>
    </g>
    <g transform="matrix(1,0,0,1,33.7654,58.7491)">
        <text x="0px" y="35.791px" style="font-family:'Arial-BoldMT', 'Arial', sans-serif;font-weight:700;font-size:50px;">Modul 1:</text>
        <text x="0px" y="152.458px" style="font-family:'ArialMT', 'Arial', sans-serif;font-size:50px;">Frauenbeschwerden</text>
        <text x="0px" y="219.124px" style="font-family:'ArialMT', 'Arial', sans-serif;font-size:50px;">verstehen &amp;</text>
        <g transform="matrix(50,0,0,50,202.954,285.791)">
        </g>
        <text x="0px" y="285.791px" style="font-family:'ArialMT', 'Arial', sans-serif;font-size:50px;">begleiten</text>
    </g>
    <g transform="matrix(1,0,0,1,605.669,58.7491)">
        <text x="0px" y="35.791px" style="font-family:'Arial-BoldMT', 'Arial', sans-serif;font-weight:700;font-size:50px;">Modul 2:</text>
        <text x="0px" y="152.458px" style="font-family:'ArialMT', 'Arial', sans-serif;font-size:50px;">Kinderwunsch,</text>
        <text x="0px" y="219.124px" style="font-family:'ArialMT', 'Arial', sans-serif;font-size:50px;">Schwangerschaft &amp;</text>
        <g transform="matrix(50,0,0,50,265.918,285.791)">
        </g>
        <text x="0px" y="285.791px" style="font-family:'ArialMT', 'Arial', sans-serif;font-size:50px;">W<tspan x="46.289px 74.097px " y="285.791px 285.791px ">oc</tspan>henbett</text>
    </g>
    <g transform="matrix(1,0,0,1,1177.14,58.7491)">
        <text x="0px" y="35.791px" style="font-family:'Arial-BoldMT', 'Arial', sans-serif;font-weight:700;font-size:50px;">Modul 3:</text>
        <text x="0px" y="152.458px" style="font-family:'ArialMT', 'Arial', sans-serif;font-size:50px;">Die W<tspan x="135.205px 163.013px " y="152.458px 152.458px ">ec</tspan>hseljahre im</text>
        <g transform="matrix(50,0,0,50,421.582,219.124)">
        </g>
        <text x="0px" y="219.124px" style="font-family:'ArialMT', 'Arial', sans-serif;font-size:50px;">Licht des <tspan x="211.255px 243.701px 268.701px " y="219.124px 219.124px 219.124px ">Ayu</tspan>rveda</text>
    </g>
    <g transform="matrix(1,0,0,1,580.521,533.643)">
        <g transform="matrix(50,0,0,50,408.529,35.791)">
        </g>
        <text x="102.768px" y="35.791px" style="font-family:'Arial-ItalicMT', 'Arial', sans-serif;font-style:italic;font-size:50px;">Frühling 2026</text>
    </g>
    <g transform="matrix(1,0,0,1,1154.34,533.643)">
        <g transform="matrix(50,0,0,50,412.668,35.791)">
        </g>
        <text x="98.629px" y="35.791px" style="font-family:'Arial-ItalicMT', 'Arial', sans-serif;font-style:italic;font-size:50px;">Sommer 2026</text>
    </g>
    <g transform="matrix(1,0,0,1,10.9795,530.114)">
        <g transform="matrix(50,0,0,50,433.529,35.791)">
        </g>
        <text x="77.768px" y="35.791px" style="font-family:'Arial-ItalicMT', 'Arial', sans-serif;font-style:italic;font-size:50px;">Dezember 2025</text>
    </g>
</svg>
