<?xml version="1.0" encoding="UTF-8" standalone="no"?><!DOCTYPE svg PUBLIC "-//W3C//DTD SVG 1.1//EN" "http://www.w3.org/Graphics/SVG/1.1/DTD/svg11.dtd"><svg width="100%" height="100%" viewBox="0 0 750 330" version="1.1" xmlns="http://www.w3.org/2000/svg" xmlns:xlink="http://www.w3.org/1999/xlink" xml:space="preserve" xmlns:serif="http://www.serif.com/" style="fill-rule:evenodd;clip-rule:evenodd;stroke-linejoin:round;stroke-miterlimit:2;"><g><path d="M520.457,34.823c-12.075,-11.634 -64.74,-19.831 -64.74,-19.831c-0,-0 1.312,24.712 6.931,42.214c6.39,-1.814 12.38,-2.922 16.453,-2.378c13.641,1.804 22.928,12.531 20.778,23.956c-0.134,0.718 -0.311,1.42 -0.528,2.103c6.601,-0.666 12.811,-2.985 17.818,-6.653c13.875,-10.113 15.341,-27.746 3.29,-39.408" style="fill:#84bf41;fill-rule:nonzero;"/><path d="M470.176,71.485c-3.114,-2.999 -5.577,-8.208 -7.528,-14.281c-14.963,4.244 -32.14,12.372 -32.14,12.372c0,0 15.527,14.183 28.994,21.885c2.141,-2.821 4.383,-5.163 6.515,-6.239c2.591,-1.306 5.559,-1.996 8.582,-1.996c5.842,-0 11.272,2.577 14.28,6.776c0.527,0.731 0.946,1.492 1.294,2.264c4.502,-2.817 7.738,-6.83 9.18,-11.382c-10.605,1.078 -21.639,-2.13 -29.177,-9.401" style="fill:#00a79f;fill-rule:nonzero;"/><path d="M479.102,54.825c-4.076,-0.541 -10.064,0.565 -16.456,2.378c1.951,6.073 4.416,11.283 7.53,14.282c7.54,7.269 18.572,10.48 29.175,9.402c0.215,-0.686 0.393,-1.387 0.528,-2.102c2.15,-11.429 -7.139,-22.156 -20.777,-23.96" style="fill:#009d49;fill-rule:nonzero;"/><path d="M471.304,96.203c-3.325,-0.443 -7.456,-2.257 -11.8,-4.741c-5.76,7.591 -10.766,18.751 -10.766,18.751c-0,0 26.552,2.918 34.442,-1.057c7.014,-3.526 9.792,-10.698 6.995,-16.89c-5.391,3.403 -12.207,4.826 -18.871,3.938" style="fill:#677d6c;fill-rule:nonzero;"/><path d="M466.017,85.224c-2.13,1.077 -4.374,3.419 -6.513,6.237c4.344,2.487 8.475,4.301 11.8,4.742c6.664,0.889 13.481,-0.533 18.871,-3.937c-0.35,-0.786 -0.784,-1.544 -1.296,-2.264c-3.008,-4.199 -8.438,-6.775 -14.279,-6.775c-3.024,-0 -5.99,0.69 -8.581,1.995" style="fill:#00604f;fill-rule:nonzero;"/><path d="M507.133,92.617l60.812,-0l-0,13.255l-43.192,0l0,13.738l38.011,-0l-0,13.259l-38.011,0l0,14.222l43.771,-0l-0,13.255l-61.391,-0l-0,-67.729Zm70.593,34.057l0,-0.192c0,-19.256 17.857,-35.027 42.268,-35.027c14.518,-0 23.27,3.289 31.679,9.288l-11.174,11.32c-6.219,-4.351 -11.745,-6.869 -21.073,-6.869c-12.901,-0 -23.153,9.579 -23.153,21.095l-0,0.192c-0,12.385 10.136,21.48 24.418,21.48c6.444,-0 12.206,-1.356 16.695,-4.061l0,-9.679l-17.847,-0l-0,-12.868l35.011,0l-0,29.412c-8.292,5.902 -19.693,10.74 -34.436,10.74c-25.106,0 -42.388,-14.804 -42.388,-34.833m90.864,-34.055l17.743,-0l-0,29.607l32.702,-29.607l21.426,-0l-32.827,28.736l34.323,38.993l-21.307,-0l-24.99,-28.834l-9.327,8.129l-0,20.705l-17.743,-0l0,-67.729Z" style="fill:#55666d;fill-rule:nonzero;"/><g><path d="M507.064,188.482l0,-0.042c0,-4.327 4.018,-7.868 9.511,-7.868c3.266,0 5.235,0.738 7.126,2.086l-2.515,2.543c-1.399,-0.979 -2.643,-1.543 -4.742,-1.543c-2.899,0 -5.207,2.151 -5.207,4.738l-0,0.044c-0,2.781 2.282,4.824 5.496,4.824c1.45,0 2.744,-0.307 3.754,-0.915l0,-2.172l-4.014,-0l-0,-2.892l7.881,0l-0,6.607c-1.868,1.325 -4.433,2.411 -7.75,2.411c-5.65,-0 -9.538,-3.325 -9.538,-7.821l-0.002,-0Zm29.828,0.826c-0.234,-1.478 -1.27,-2.475 -2.929,-2.475c-1.629,-0 -2.692,0.973 -3.005,2.475l5.934,-0Zm-9.794,0.978l0,-0.044c0,-3.324 2.824,-6.063 6.865,-6.063c4.639,-0 6.764,3.021 6.764,6.325c0,0.26 -0.024,0.562 -0.052,0.869l-9.664,-0c0.389,1.497 1.631,2.28 3.394,2.28c1.323,0 2.28,-0.349 3.369,-1.197l2.255,1.674c-1.298,1.348 -3.165,2.171 -5.677,2.171c-4.173,0 -7.254,-2.453 -7.254,-6.015Zm15.471,4.216l1.682,-2.173c1.504,0.91 3.086,1.389 4.379,1.389c1.14,0 1.659,-0.346 1.659,-0.87l-0,-0.044c-0,-0.716 -1.344,-0.956 -2.875,-1.348c-1.944,-0.477 -4.146,-1.237 -4.146,-3.496l-0,-0.045c-0,-2.366 2.28,-3.695 5.081,-3.695c1.759,0 3.676,0.503 5.182,1.348l-1.504,2.284c-1.372,-0.674 -2.744,-1.087 -3.759,-1.087c-0.957,-0 -1.45,0.348 -1.45,0.804l-0,0.044c-0,0.653 1.319,0.954 2.825,1.391c1.944,0.543 4.198,1.325 4.198,3.452l-0,0.047c-0,2.584 -2.305,3.757 -5.313,3.757c-2.164,-0.014 -4.261,-0.633 -5.959,-1.758Zm13.992,-2.566l-0,-7.54l3.94,-0l0,6.499c0,1.564 0.88,2.366 2.384,2.366c1.503,0 2.463,-0.804 2.463,-2.366l0,-6.499l3.936,-0l-0,11.649l-3.936,-0l0,-1.653c-0.908,0.978 -2.074,1.866 -4.071,1.866c-2.978,0 -4.714,-1.65 -4.714,-4.322l-0.002,0Zm16.248,-7.54l3.941,-0l0,1.652c0.906,-0.978 2.074,-1.869 4.067,-1.869c2.979,-0 4.715,1.652 4.715,4.325l0,7.538l-3.937,-0l0,-6.494c0,-1.565 -0.883,-2.372 -2.386,-2.372c-1.502,0 -2.459,0.807 -2.459,2.372l0,6.494l-3.941,-0l0,-11.646Zm26.226,5.846l-0,-0.043c-0,-1.933 -1.527,-3.216 -3.369,-3.216c-1.841,0 -3.396,1.26 -3.396,3.216l0,0.043c0,1.935 1.555,3.215 3.396,3.215c1.842,0 3.369,-1.28 3.369,-3.215Zm-10.702,-0l-0,-0.043c-0,-3.89 3.033,-6.019 6.325,-6.019c2.098,0 3.393,0.803 4.324,1.738l-0,-5.738l3.941,-0l-0,15.863l-3.941,0l-0,-1.674c-0.956,1.089 -2.278,1.892 -4.324,1.892c-3.243,0 -6.325,-2.13 -6.325,-6.019Zm24.642,-5.845l4.173,0l3.108,7.798l3.135,-7.798l4.094,0l-5.467,11.732l-3.575,-0l-5.468,-11.732Zm25.138,4.911c-0.234,-1.478 -1.27,-2.475 -2.926,-2.475c-1.632,-0 -2.695,0.973 -3.008,2.475l5.934,-0Zm-9.794,0.978l0,-0.044c0,-3.324 2.826,-6.063 6.868,-6.063c4.636,-0 6.763,3.021 6.763,6.325c-0,0.26 -0.026,0.562 -0.053,0.869l-9.665,-0c0.389,1.497 1.632,2.28 3.395,2.28c1.32,0 2.28,-0.349 3.367,-1.197l2.256,1.674c-1.297,1.348 -3.163,2.171 -5.677,2.171c-4.172,0 -7.254,-2.453 -7.254,-6.015Zm16.558,-5.89l3.941,-0l0,2.348c0.802,-1.609 2.099,-2.651 4.428,-2.567l0,3.457l-0.206,-0c-2.616,-0 -4.222,1.326 -4.222,4.106l0,4.302l-3.941,-0l0,-11.646Zm9.747,10.104l1.68,-2.171c1.506,0.91 3.085,1.389 4.38,1.389c1.14,0 1.659,-0.346 1.659,-0.87l0,-0.044c0,-0.716 -1.344,-0.956 -2.874,-1.348c-1.944,-0.477 -4.147,-1.237 -4.147,-3.496l0,-0.045c0,-2.366 2.28,-3.695 5.081,-3.695c1.759,0 3.677,0.503 5.183,1.348l-1.506,2.284c-1.373,-0.674 -2.745,-1.087 -3.758,-1.087c-0.959,-0 -1.45,0.348 -1.45,0.804l0,0.044c0,0.653 1.32,0.954 2.822,1.391c1.948,0.543 4.201,1.325 4.201,3.452l0,0.047c0,2.584 -2.306,3.757 -5.313,3.757c-2.164,-0.014 -4.262,-0.633 -5.96,-1.758l0.002,-0.002Zm14.276,1.543l3.939,0l-0,-11.646l-3.939,0l0,11.646Zm-0.106,-12.929l4.149,-0l-0,-2.933l-4.147,0l0,2.933l-0.002,-0Zm7.078,7.172l-0,-0.044c-0,-3.325 3.033,-6.063 7.283,-6.063c2.615,-0 4.249,0.74 5.544,1.956l-2.41,2.174c-0.88,-0.783 -1.763,-1.283 -3.162,-1.283c-1.97,-0 -3.369,1.456 -3.369,3.171l0,0.045c0,1.78 1.372,3.214 3.526,3.214c1.319,-0 2.225,-0.478 3.186,-1.236l2.306,1.956c-1.347,1.236 -2.903,2.127 -5.675,2.127c-4.175,-0 -7.229,-2.692 -7.229,-6.017Zm15.467,-10.105l3.941,0l0,5.867c0.906,-0.978 2.074,-1.871 4.068,-1.871c2.981,0 4.716,1.653 4.716,4.328l0,7.538l-3.937,0l-0,-6.496c-0,-1.564 -0.883,-2.371 -2.386,-2.371c-1.502,0 -2.461,0.806 -2.461,2.371l0,6.498l-3.941,-0l0,-15.864Zm25.269,9.127c-0.236,-1.478 -1.271,-2.475 -2.928,-2.475c-1.632,-0 -2.695,0.973 -3.008,2.475l5.936,-0Zm-9.792,0.978l-0,-0.044c-0,-3.324 2.821,-6.063 6.864,-6.063c4.639,-0 6.763,3.021 6.763,6.325c-0,0.26 -0.025,0.562 -0.049,0.869l-9.666,-0c0.387,1.497 1.629,2.28 3.39,2.28c1.327,0 2.282,-0.349 3.373,-1.197l2.252,1.674c-1.297,1.348 -3.162,2.171 -5.674,2.171c-4.173,0 -7.253,-2.453 -7.253,-6.015Zm16.556,-5.89l3.937,-0l0,2.348c0.804,-1.609 2.099,-2.651 4.434,-2.567l-0,3.457l-0.208,-0c-2.618,-0 -4.226,1.326 -4.226,4.106l0,4.302l-3.937,-0l-0,-11.646Zm11.481,8.343l-0,-5.517l-1.659,0l-0,-2.825l1.659,0l-0,-2.978l3.939,0l-0,2.978l3.263,0l0,2.825l-3.263,0l-0,4.976c-0,0.759 0.387,1.129 1.27,1.129c0.723,0 1.372,-0.15 1.944,-0.413l0,2.653c-0.832,0.41 -1.789,0.671 -3.11,0.671c-2.411,-0 -4.043,-0.804 -4.043,-3.499Z" style="fill:#55666d;fill-rule:nonzero;"/></g><g id="Ebene_2"><g id="Ebene_1-2"><path d="M77.978,171.547c13.159,-6.094 25.882,-19.525 25.882,-44.046c0,-48.879 -47.55,-49.424 -53.577,-48.366c14.101,5.451 24.569,22.161 24.569,48.366c-0,26.205 -11.12,44.746 -24.174,48.96c0.943,0.659 17.727,25.838 49.218,13.651c-13.852,-5.727 -19.154,-12.846 -21.918,-18.565Z" style="fill:#183254;fill-rule:nonzero;"/><path d="M44.103,96.016c-5.746,4.987 -10.983,17.174 -10.983,31.851c-0,14.538 5.237,26.847 10.983,31.859c-10.685,12.041 -35.77,-1.107 -35.77,-32.079c0,-32.802 24.98,-43.672 35.77,-31.631" style="fill:#64a730;fill-rule:nonzero;"/><path d="M127.373,99.376c-0.005,-0.067 -0.008,-0.136 -0.008,-0.204c-0,-1.312 1.069,-2.392 2.369,-2.392c0.019,0 0.038,0 0.057,0.001l16.615,-0c1.419,-0 2.128,0.716 2.128,1.928l-0,0.268c-0,1.253 -0.709,1.92 -2.128,1.92l-14.504,0l0,8.095l11.209,0c1.458,0 2.127,0.627 2.127,1.831l-0,0.138c-0,1.245 -0.709,1.92 -2.127,1.92l-11.169,0l0,8.779l14.754,-0c1.419,-0 2.079,0.626 2.079,1.83l0,0.228c0,1.293 -0.66,2.009 -2.079,2.009l-16.921,0c-0.032,0.002 -0.065,0.003 -0.097,0.003c-1.278,-0 -2.329,-1.062 -2.329,-2.351c0,-0.066 0.003,-0.132 0.008,-0.198l0.016,-23.805Zm27.792,-0.22c-0.001,-0.04 -0.003,-0.081 -0.003,-0.122c0,-1.339 1.092,-2.44 2.418,-2.44c0.066,-0 0.131,0.002 0.196,0.008l1.241,-0c1.773,-0 2.256,0.675 2.965,2.327l6.777,15.457l6.825,-15.457c0.709,-1.701 1.241,-2.327 2.925,-2.327l1.112,-0c0.095,-0.011 0.19,-0.017 0.285,-0.017c1.327,-0 2.418,1.101 2.418,2.44c-0,0.044 -0.001,0.088 -0.003,0.131l-0,24.651c-0,1.383 -0.572,2.099 -1.902,2.099l-0.62,0c-1.29,0 -1.822,-0.716 -1.822,-2.099l0,-21.25l-6.333,14.4c-0.492,1.164 -0.975,1.969 -2.925,1.969c-1.95,-0 -2.418,-0.814 -2.925,-1.969l-6.245,-14.27l-0,21.153c-0,1.383 -0.532,2.099 -1.862,2.099l-0.709,-0c-1.241,-0 -1.772,-0.716 -1.772,-2.099l-0.041,-24.684Zm34.964,0.22c-0.006,-0.067 -0.009,-0.136 -0.009,-0.204c-0,-1.312 1.069,-2.392 2.369,-2.392c0.019,0 0.038,0 0.057,0.001l8.147,-0c7.002,-0 10.725,2.953 10.725,8.681c-0,4.922 -3.014,8.054 -8.55,8.501l8.373,10.064c0.225,0.268 -0.75,1.879 -2.659,1.879c-1.193,0 -1.991,-0.488 -2.966,-1.79l-7.848,-9.705l-3.143,-0l0,9.396c0.009,0.075 0.014,0.15 0.014,0.226c-0,1.03 -0.841,1.879 -1.862,1.879c-0.047,-0 -0.095,-0.002 -0.142,-0.006l-0.58,0c-1.241,0 -1.91,-0.813 -1.91,-2.367l-0.016,-24.163Zm10.475,11.39c4.214,-0 6.205,-1.969 6.205,-5.101c-0,-3.36 -2.128,-5.101 -6.334,-5.101l-5.89,-0l-0,10.226l6.019,-0.024Z" style="fill:#183254;fill-rule:nonzero;"/><path d="M127.108,161.28c-0,-1.343 0.443,-2.01 1.909,-3.848l15.02,-18.476l-14.754,-0c-1.329,-0 -2.038,-0.578 -2.038,-1.88l-0,-0.268c-0,-1.253 0.709,-1.879 2.038,-1.879l17.325,-0c2.127,-0 2.925,0.984 2.925,2.147l-0,0.391c-0,1.342 -0.709,2.327 -1.862,3.71l-15.157,18.671l15.641,-0c1.329,-0 2.039,0.586 2.039,1.879l-0,0.269c-0,1.253 -0.71,1.879 -2.039,1.879l-18.074,0c-2.127,0 -2.973,-1.025 -2.973,-2.188l-0,-0.407Zm30.136,-23.756c-0.005,-0.068 -0.009,-0.136 -0.009,-0.204c0,-1.313 1.07,-2.392 2.369,-2.392c0.02,-0 0.038,-0 0.058,0.001l16.615,-0c1.418,-0 2.127,0.716 2.127,1.928l0,0.268c0,1.253 -0.709,1.92 -2.127,1.92l-14.504,0l-0,8.136l11.208,-0c1.459,-0 2.128,0.626 2.128,1.838l-0,0.131c-0,1.253 -0.709,1.928 -2.128,1.928l-11.168,-0l0,8.729l14.754,0c1.418,0 2.079,0.627 2.079,1.831l0,0.236c0,1.293 -0.661,2.009 -2.079,2.009l-16.881,0c-0.032,0.002 -0.065,0.003 -0.097,0.003c-1.278,-0 -2.329,-1.062 -2.329,-2.352c0,-0.065 0.003,-0.131 0.008,-0.197l-0.024,-23.813Zm28.01,-0c-0.006,-0.068 -0.009,-0.136 -0.009,-0.204c-0,-1.313 1.069,-2.392 2.369,-2.392c0.019,-0 0.038,-0 0.057,0.001l8.171,-0c7.002,-0 10.725,2.953 10.725,8.68c0,4.882 -3.014,8.055 -8.549,8.502l8.372,10.064c0.225,0.268 -0.75,1.879 -2.659,1.879c-1.193,0 -1.991,-0.488 -2.966,-1.79l-7.848,-9.706l-3.143,0l0,9.397c0.009,0.075 0.014,0.15 0.014,0.225c-0,1.031 -0.84,1.88 -1.861,1.88c-0.048,-0 -0.096,-0.002 -0.143,-0.006l-0.621,0c-1.24,0 -1.909,-0.813 -1.909,-2.367l-0,-24.163Zm10.475,11.39c4.214,-0 6.205,-1.969 6.205,-5.101c-0,-3.352 -2.128,-5.093 -6.334,-5.093l-5.89,-0l-0,10.21l6.019,-0.016Zm23.723,-9.869l-7.841,0c-1.378,0 -2.127,-0.716 -2.127,-1.969l0,-0.219c0,-1.253 0.749,-1.928 2.127,-1.928l20.29,-0c1.378,-0 2.087,0.675 2.087,1.928l0,0.219c0,1.253 -0.709,1.969 -2.087,1.969l-7.84,0l-0,22.91c0.012,0.086 0.018,0.171 0.018,0.257c-0,1.018 -0.83,1.855 -1.838,1.855c-0.073,0 -0.146,-0.004 -0.219,-0.013l-0.62,0c-1.29,0 -1.95,-0.716 -1.95,-2.099l-0,-22.91Zm20.225,-2.188c0,-1.391 0.669,-2.107 1.95,-2.107l0.621,-0c1.329,-0 1.99,0.716 1.99,2.107l-0,25.098c-0,1.383 -0.661,2.099 -1.99,2.099l-0.621,0c-1.281,0 -1.95,-0.716 -1.95,-2.099l0,-25.098Zm14.843,0.667c-0.006,-0.068 -0.009,-0.136 -0.009,-0.204c0,-1.313 1.069,-2.392 2.369,-2.392c0.019,-0 0.038,-0 0.057,0.001l15.464,-0c1.418,-0 2.127,0.675 2.127,1.879l-0,0.268c-0,1.253 -0.709,1.92 -2.127,1.92l-13.361,0l0,9.218l9.928,0c1.466,0 2.127,0.675 2.127,1.839l0,0.179c0,1.253 -0.709,1.879 -2.127,1.879l-9.839,0l0,9.844c0,1.383 -0.661,2.099 -1.99,2.099l-0.709,0c-1.241,0 -1.91,-0.813 -1.91,-2.441l-0,-24.089Zm25.793,-0.667c0,-1.391 0.669,-2.107 1.95,-2.107l0.621,-0c1.329,-0 1.998,0.716 1.998,2.107l0,25.098c0,1.383 -0.669,2.099 -1.998,2.099l-0.58,0c-1.281,0 -1.95,-0.716 -1.95,-2.099l-0.041,-25.098Zm11.483,24.423c0,-1.343 0.443,-2.01 1.902,-3.848l15.028,-18.476l-14.762,-0c-1.33,-0 -2.039,-0.578 -2.039,-1.88l-0,-0.268c-0,-1.253 0.709,-1.879 2.039,-1.879l17.348,-0c2.12,-0 2.917,0.984 2.917,2.147l0,0.391c0,1.342 -0.701,2.327 -1.853,3.71l-15.173,18.671l15.64,-0c1.33,-0 2.039,0.586 2.039,1.879l0,0.269c0,1.253 -0.709,1.879 -2.039,1.879l-18.082,0c-2.127,0 -2.965,-1.025 -2.965,-2.188l0,-0.407Zm30.314,-24.423c0,-1.391 0.661,-2.107 1.95,-2.107l0.621,-0c1.329,-0 1.99,0.716 1.99,2.107l-0,25.098c-0,1.383 -0.661,2.099 -1.99,2.099l-0.621,0c-1.289,0 -1.95,-0.716 -1.95,-2.099l0,-25.098Zm13.956,0.667c-0.005,-0.068 -0.008,-0.136 -0.008,-0.204c-0,-1.313 1.069,-2.392 2.369,-2.392c0.019,-0 0.037,-0 0.057,0.001l16.615,-0c1.418,-0 2.128,0.716 2.128,1.928l-0,0.268c-0,1.253 -0.71,1.92 -2.128,1.92l-14.504,0l-0,8.136l11.249,-0c1.458,-0 2.127,0.626 2.127,1.838l0,0.131c0,1.253 -0.709,1.928 -2.127,1.928l-11.209,-0l0,8.729l14.754,0c1.419,0 2.079,0.627 2.079,1.831l0,0.236c0,1.293 -0.66,2.009 -2.079,2.009l-16.881,0c-0.032,0.002 -0.065,0.003 -0.097,0.003c-1.278,-0 -2.328,-1.062 -2.328,-2.352c-0,-0.065 0.002,-0.131 0.008,-0.197l-0.025,-23.813Zm28.235,-0c-0.006,-0.071 -0.009,-0.142 -0.009,-0.212c-0,-1.308 1.066,-2.384 2.361,-2.384c0.022,-0 0.044,-0 0.066,0.001l8.171,-0c7.002,-0 10.725,2.953 10.725,8.68c-0,4.882 -3.014,8.055 -8.55,8.502l8.381,10.064c0.217,0.268 -0.758,1.879 -2.66,1.879c-1.2,0 -1.998,-0.488 -2.973,-1.79l-7.84,-9.706l-3.143,0l0,9.397c0.009,0.075 0.014,0.151 0.014,0.226c-0,1.031 -0.841,1.88 -1.862,1.88c-0.05,-0 -0.1,-0.003 -0.15,-0.007l-0.621,0c-1.241,0 -1.901,-0.813 -1.901,-2.367l-0.009,-24.163Zm10.476,11.39c4.206,-0 6.204,-1.969 6.204,-5.101c0,-3.352 -2.127,-5.093 -6.333,-5.093l-5.899,-0l0,10.21l6.028,-0.016Zm23.956,-9.869l-7.84,0c-1.378,0 -2.128,-0.716 -2.128,-1.969l0,-0.219c0,-1.253 0.75,-1.928 2.128,-1.928l20.29,-0c1.378,-0 2.087,0.675 2.087,1.928l-0,0.219c-0,1.253 -0.709,1.969 -2.087,1.969l-7.841,0l0,22.91c0.012,0.086 0.018,0.171 0.018,0.257c-0,1.018 -0.829,1.855 -1.837,1.855c-0.074,0 -0.147,-0.004 -0.219,-0.013l-0.621,0c-1.289,0 -1.95,-0.716 -1.95,-2.099l0,-22.91Z" style="fill:#64a730;fill-rule:nonzero;"/></g></g></g></svg>