<?xml version="1.0" encoding="UTF-8" standalone="no"?>
<!DOCTYPE svg PUBLIC "-//W3C//DTD SVG 1.1//EN" "http://www.w3.org/Graphics/SVG/1.1/DTD/svg11.dtd">
<svg width="100%" height="100%" viewBox="0 0 503 141" version="1.1" xmlns="http://www.w3.org/2000/svg" xmlns:xlink="http://www.w3.org/1999/xlink" xml:space="preserve" xmlns:serif="http://www.serif.com/" style="fill-rule:evenodd;clip-rule:evenodd;stroke-linejoin:round;stroke-miterlimit:2;">
    <g id="Ebene_2">
        <g id="Ebene_1-2">
            <path d="M86.43,113.89C102.76,106.4 118.55,89.89 118.55,59.75C118.55,-0.33 59.54,-1 52.06,0.3C69.56,7 82.55,27.54 82.55,59.75C82.55,91.96 68.75,114.75 52.55,119.93C53.72,120.74 74.55,151.69 113.63,136.71C96.44,129.67 89.86,120.92 86.43,113.89Z" style="fill:rgb(24,50,84);fill-rule:nonzero;"/>
            <path d="M44.39,21.05C37.26,27.18 30.76,42.16 30.76,60.2C30.76,78.07 37.26,93.2 44.39,99.36C31.13,114.16 0,98 0,59.93C0,19.61 31,6.25 44.39,21.05" style="fill:rgb(100,167,48);fill-rule:nonzero;"/>
            <path d="M147.73,25.18C147.723,25.097 147.719,25.013 147.719,24.929C147.719,23.316 149.046,21.989 150.659,21.989C150.683,21.989 150.706,21.989 150.73,21.99L171.35,21.99C173.11,21.99 173.99,22.87 173.99,24.36L173.99,24.69C173.99,26.23 173.11,27.05 171.35,27.05L153.35,27.05L153.35,37L167.26,37C169.07,37 169.9,37.77 169.9,39.25L169.9,39.42C169.9,40.95 169.02,41.78 167.26,41.78L153.4,41.78L153.4,52.57L171.71,52.57C173.47,52.57 174.29,53.34 174.29,54.82L174.29,55.1C174.29,56.69 173.47,57.57 171.71,57.57L150.71,57.57C150.67,57.572 150.63,57.573 150.59,57.573C149.004,57.573 147.7,56.268 147.7,54.683C147.7,54.602 147.703,54.521 147.71,54.44L147.73,25.18ZM182.22,24.91C182.218,24.86 182.216,24.81 182.216,24.76C182.216,23.114 183.571,21.76 185.216,21.76C185.298,21.76 185.379,21.763 185.46,21.77L187,21.77C189.2,21.77 189.8,22.6 190.68,24.63L199.09,43.63L207.56,24.63C208.44,22.54 209.1,21.77 211.19,21.77L212.57,21.77C212.688,21.756 212.806,21.749 212.924,21.749C214.57,21.749 215.924,23.103 215.924,24.749C215.924,24.803 215.923,24.856 215.92,24.91L215.92,55.21C215.92,56.91 215.21,57.79 213.56,57.79L212.79,57.79C211.19,57.79 210.53,56.91 210.53,55.21L210.53,29.09L202.67,46.79C202.06,48.22 201.46,49.21 199.04,49.21C196.62,49.21 196.04,48.21 195.41,46.79L187.66,29.25L187.66,55.25C187.66,56.95 187,57.83 185.35,57.83L184.47,57.83C182.93,57.83 182.27,56.95 182.27,55.25L182.22,24.91ZM225.61,25.18C225.603,25.097 225.599,25.013 225.599,24.929C225.599,23.316 226.926,21.989 228.539,21.989C228.563,21.989 228.586,21.989 228.61,21.99L238.72,21.99C247.41,21.99 252.03,25.62 252.03,32.66C252.03,38.71 248.29,42.56 241.42,43.11L251.81,55.48C252.09,55.81 250.88,57.79 248.51,57.79C247.03,57.79 246.04,57.19 244.83,55.59L235.09,43.66L231.19,43.66L231.19,55.21C231.201,55.302 231.207,55.394 231.207,55.487C231.207,56.754 230.164,57.797 228.897,57.797C228.838,57.797 228.779,57.795 228.72,57.79L228,57.79C226.46,57.79 225.63,56.79 225.63,54.88L225.61,25.18ZM238.61,39.18C243.84,39.18 246.31,36.76 246.31,32.91C246.31,28.78 243.67,26.64 238.45,26.64L231.14,26.64L231.14,39.21L238.61,39.18Z" style="fill:rgb(24,50,84);fill-rule:nonzero;"/>
            <path d="M147.4,101.27C147.4,99.62 147.95,98.8 149.77,96.54L168.41,73.83L150.1,73.83C148.45,73.83 147.57,73.12 147.57,71.52L147.57,71.19C147.57,69.65 148.45,68.88 150.1,68.88L171.6,68.88C174.24,68.88 175.23,70.09 175.23,71.52L175.23,72C175.23,73.65 174.35,74.86 172.92,76.56L154.11,99.51L173.52,99.51C175.17,99.51 176.05,100.23 176.05,101.82L176.05,102.15C176.05,103.69 175.17,104.46 173.52,104.46L151.09,104.46C148.45,104.46 147.4,103.2 147.4,101.77L147.4,101.27ZM184.8,72.07C184.793,71.987 184.789,71.903 184.789,71.819C184.789,70.206 186.116,68.879 187.729,68.879C187.753,68.879 187.776,68.879 187.8,68.88L208.42,68.88C210.18,68.88 211.06,69.76 211.06,71.25L211.06,71.58C211.06,73.12 210.18,73.94 208.42,73.94L190.42,73.94L190.42,83.94L204.33,83.94C206.14,83.94 206.97,84.71 206.97,86.2L206.97,86.36C206.97,87.9 206.09,88.73 204.33,88.73L190.47,88.73L190.47,99.46L208.78,99.46C210.54,99.46 211.36,100.23 211.36,101.71L211.36,102C211.36,103.59 210.54,104.47 208.78,104.47L187.83,104.47C187.79,104.472 187.75,104.473 187.71,104.473C186.124,104.473 184.82,103.168 184.82,101.583C184.82,101.502 184.823,101.421 184.83,101.34L184.8,72.07ZM219.56,72.07C219.553,71.987 219.549,71.903 219.549,71.819C219.549,70.206 220.876,68.879 222.489,68.879C222.513,68.879 222.536,68.879 222.56,68.88L232.7,68.88C241.39,68.88 246.01,72.51 246.01,79.55C246.01,85.55 242.27,89.45 235.4,90L245.79,102.37C246.07,102.7 244.86,104.68 242.49,104.68C241.01,104.68 240.02,104.08 238.81,102.48L229.07,90.55L225.17,90.55L225.17,102.1C225.181,102.192 225.187,102.284 225.187,102.377C225.187,103.644 224.144,104.687 222.877,104.687C222.818,104.687 222.759,104.685 222.7,104.68L221.93,104.68C220.39,104.68 219.56,103.68 219.56,101.77L219.56,72.07ZM232.56,86.07C237.79,86.07 240.26,83.65 240.26,79.8C240.26,75.68 237.62,73.54 232.4,73.54L225.09,73.54L225.09,86.09L232.56,86.07ZM262,73.94L252.27,73.94C250.56,73.94 249.63,73.06 249.63,71.52L249.63,71.25C249.63,69.71 250.56,68.88 252.27,68.88L277.45,68.88C279.16,68.88 280.04,69.71 280.04,71.25L280.04,71.52C280.04,73.06 279.16,73.94 277.45,73.94L267.72,73.94L267.72,102.1C267.735,102.205 267.742,102.31 267.742,102.416C267.742,103.667 266.713,104.696 265.462,104.696C265.371,104.696 265.28,104.691 265.19,104.68L264.42,104.68C262.82,104.68 262,103.8 262,102.1L262,73.94ZM287.1,71.25C287.1,69.54 287.93,68.66 289.52,68.66L290.29,68.66C291.94,68.66 292.76,69.54 292.76,71.25L292.76,102.1C292.76,103.8 291.94,104.68 290.29,104.68L289.52,104.68C287.93,104.68 287.1,103.8 287.1,102.1L287.1,71.25ZM305.52,72.07C305.513,71.987 305.509,71.903 305.509,71.819C305.509,70.206 306.836,68.879 308.449,68.879C308.473,68.879 308.496,68.879 308.52,68.88L327.71,68.88C329.47,68.88 330.35,69.71 330.35,71.19L330.35,71.52C330.35,73.06 329.47,73.88 327.71,73.88L311.13,73.88L311.13,85.21L323.45,85.21C325.27,85.21 326.09,86.04 326.09,87.47L326.09,87.69C326.09,89.23 325.21,90 323.45,90L311.24,90L311.24,102.1C311.24,103.8 310.42,104.68 308.77,104.68L307.89,104.68C306.35,104.68 305.52,103.68 305.52,101.68L305.52,72.07ZM337.53,71.25C337.53,69.54 338.36,68.66 339.95,68.66L340.72,68.66C342.37,68.66 343.2,69.54 343.2,71.25L343.2,102.1C343.2,103.8 342.37,104.68 340.72,104.68L340,104.68C338.41,104.68 337.58,103.8 337.58,102.1L337.53,71.25ZM351.78,101.27C351.78,99.62 352.33,98.8 354.14,96.54L372.79,73.83L354.47,73.83C352.82,73.83 351.94,73.12 351.94,71.52L351.94,71.19C351.94,69.65 352.82,68.88 354.47,68.88L376,68.88C378.63,68.88 379.62,70.09 379.62,71.52L379.62,72C379.62,73.65 378.75,74.86 377.32,76.56L358.49,99.51L377.9,99.51C379.55,99.51 380.43,100.23 380.43,101.82L380.43,102.15C380.43,103.69 379.55,104.46 377.9,104.46L355.46,104.46C352.82,104.46 351.78,103.2 351.78,101.77L351.78,101.27ZM389.4,71.25C389.4,69.54 390.22,68.66 391.82,68.66L392.59,68.66C394.24,68.66 395.06,69.54 395.06,71.25L395.06,102.1C395.06,103.8 394.24,104.68 392.59,104.68L391.82,104.68C390.22,104.68 389.4,103.8 389.4,102.1L389.4,71.25ZM406.72,72.07C406.713,71.987 406.709,71.903 406.709,71.819C406.709,70.206 408.036,68.879 409.649,68.879C409.673,68.879 409.696,68.879 409.72,68.88L430.34,68.88C432.1,68.88 432.98,69.76 432.98,71.25L432.98,71.58C432.98,73.12 432.1,73.94 430.34,73.94L412.34,73.94L412.34,83.94L426.3,83.94C428.11,83.94 428.94,84.71 428.94,86.2L428.94,86.36C428.94,87.9 428.06,88.73 426.3,88.73L412.39,88.73L412.39,99.46L430.7,99.46C432.46,99.46 433.28,100.23 433.28,101.71L433.28,102C433.28,103.59 432.46,104.47 430.7,104.47L409.75,104.47C409.71,104.472 409.67,104.473 409.63,104.473C408.044,104.473 406.74,103.168 406.74,101.583C406.74,101.502 406.743,101.421 406.75,101.34L406.72,72.07ZM441.76,72.07C441.752,71.983 441.748,71.896 441.748,71.809C441.748,70.202 443.071,68.879 444.678,68.879C444.706,68.879 444.733,68.879 444.76,68.88L454.9,68.88C463.59,68.88 468.21,72.51 468.21,79.55C468.21,85.55 464.47,89.45 457.6,90L468,102.37C468.27,102.7 467.06,104.68 464.7,104.68C463.21,104.68 462.22,104.08 461.01,102.48L451.28,90.55L447.38,90.55L447.38,102.1C447.391,102.192 447.397,102.285 447.397,102.378C447.397,103.645 446.354,104.688 445.087,104.688C445.024,104.688 444.962,104.685 444.9,104.68L444.13,104.68C442.59,104.68 441.77,103.68 441.77,101.77L441.76,72.07ZM454.76,86.07C459.98,86.07 462.46,83.65 462.46,79.8C462.46,75.68 459.82,73.54 454.6,73.54L447.28,73.54L447.28,86.09L454.76,86.07ZM484.49,73.94L474.76,73.94C473.05,73.94 472.12,73.06 472.12,71.52L472.12,71.25C472.12,69.71 473.05,68.88 474.76,68.88L499.94,68.88C501.65,68.88 502.53,69.71 502.53,71.25L502.53,71.52C502.53,73.06 501.65,73.94 499.94,73.94L490.21,73.94L490.21,102.1C490.225,102.205 490.232,102.31 490.232,102.416C490.232,103.667 489.203,104.696 487.952,104.696C487.861,104.696 487.77,104.691 487.68,104.68L486.91,104.68C485.31,104.68 484.49,103.8 484.49,102.1L484.49,73.94Z" style="fill:rgb(100,167,48);fill-rule:nonzero;"/>
        </g>
    </g>
</svg>
