<?xml version="1.0" encoding="UTF-8" standalone="no"?>
<!DOCTYPE svg PUBLIC "-//W3C//DTD SVG 1.1//EN" "http://www.w3.org/Graphics/SVG/1.1/DTD/svg11.dtd">
<svg width="100%" height="100%" viewBox="0 0 64 60" version="1.1" xmlns="http://www.w3.org/2000/svg" xmlns:xlink="http://www.w3.org/1999/xlink" xml:space="preserve" xmlns:serif="http://www.serif.com/" style="fill-rule:evenodd;clip-rule:evenodd;stroke-linejoin:round;stroke-miterlimit:2;">
    <g transform="matrix(0.0961941,0,0,0.101166,-8.94001,-143.384)">
        <path d="M493.282,1901.07C548.091,1892.01 586.616,1855.38 608.857,1791.18C620.772,1757.19 626.73,1724.34 626.73,1692.61C626.73,1687.33 626.531,1682.61 626.134,1678.45C625.737,1674.3 624.744,1669.58 623.155,1664.29L493.282,1664.29L493.282,1417.31L748.263,1417.31L748.263,1646.16C748.263,1733.78 729.795,1811.95 692.858,1880.68C655.922,1949.41 589.396,1992.09 493.282,2008.7L493.282,1901.07ZM92.937,1901.07C141.392,1892.01 176.739,1864.63 198.981,1818.93C221.222,1773.24 229.166,1721.69 222.811,1664.29L92.937,1664.29L92.937,1417.31L346.727,1417.31L346.727,1646.16C346.727,1733.02 329.053,1810.82 293.705,1879.55C258.357,1948.28 191.435,1991.33 92.937,2008.7L92.937,1901.07Z" style="fill:rgb(229,229,229);fill-rule:nonzero;"/>
    </g>
</svg>
